<?xml version="1.0" encoding="utf-8"?>
<!-- Generator: Adobe Illustrator 24.1.2, SVG Export Plug-In . SVG Version: 6.00 Build 0)  -->
<svg version="1.1" id="Layer_1" xmlns="http://www.w3.org/2000/svg" xmlns:xlink="http://www.w3.org/1999/xlink" x="0px" y="0px"
	 viewBox="0 0 975.6 157" style="enable-background:new 0 0 975.6 157;" xml:space="preserve">
<style type="text/css">
	.st0{fill:#FFFFFF;stroke:#000000;stroke-miterlimit:10;}
</style>
<path class="st0" d="M0,156.5c48.9-1.8,84.8-25.2,89.4-52.9c3.6-22-11.5-52.7-28.2-54.1c-7.7-0.6-15.7,4.9-20,10.6
	c-7.7,10.1-5.3,22-4.7,24.7c3.7,15.7,19.3,23.7,25.9,27.1c37.4,19.2,104.2,12.3,136.5-27.1C216,63.8,216.9,41.5,231.8,40
	c14.3-1.4,31,17.3,28.2,23.5c-2.1,4.7-16.8,4.4-27.1-1.2c-14.1-7.7-22.4-26.9-17.6-40c7-19.3,43.3-27.6,68.2-17.6
	c34.8,13.9,23,53.7,61.2,85.9c30.5,25.7,83.2,38.3,120,22.4c33.4-14.5,60.9-29.5,60.9-29.5c11.5-6.3,22.6-12.8,30.9-8.2
	c6.6,3.7,10.1,13.7,7.1,20c-4.4,9-22.8,10.4-30.6,3.5c-11.4-10.1-7.9-44.7,8.2-55.3c34.7-22.8,94.6,86.7,195.3,83.5
	c60-1.9,80.9-42.1,128.2-24.7c36.5,13.4,63.2,51.7,85.9,41.2c0,0,0.9-0.4,24.7-17.6l0,0"/>
</svg>
