<?xml version="1.0" encoding="utf-8"?>
<!-- Generator: Adobe Illustrator 24.1.2, SVG Export Plug-In . SVG Version: 6.00 Build 0)  -->
<svg version="1.1" id="Layer_1" xmlns="http://www.w3.org/2000/svg" xmlns:xlink="http://www.w3.org/1999/xlink" x="0px" y="0px"
	 viewBox="0 0 704 636.4" style="enable-background:new 0 0 704 636.4;" xml:space="preserve">
<style type="text/css">
	.st0{fill:#FFFFFF;}
</style>
<path d="M663.9,681.5H40.1c-49.8,0-90.1-40.4-90.1-90.1V44.9c0-49.8,40.4-90.1,90.1-90.1h623.7c49.8,0,90.1,40.4,90.1,90.1v546.5
	C754,641.2,713.6,681.5,663.9,681.5z"/>
<g>
	<path class="st0" d="M524.5,47h92l-201,229.7L652,589.3H466.9l-145-189.6L155.9,589.3H63.8l215-245.7L52,47h189.8l131.1,173.3
		L524.5,47z M492.2,534.3h51L214.1,99.2h-54.7L492.2,534.3z"/>
</g>
</svg>
